Coordinates
version=1
nRows=65
nColumns=12
inDegrees=yes

Units are S.I. units (second, meters, Newtons, ...)
Angles are in degrees

endheader
time	SC_y	SC_z	SC_x	AC_y	AC_z	AC_x	GH_y	GH_z	GH_yy	EL_x	PS_y
       0.0              -51.53         0.2732          56.73          52.19         -17.09         -11.17         -97.84          3.247          133.8          48.51          152.7
   0.01862              -51.53         0.2747          56.74          52.19         -17.09         -11.17         -97.81          3.255          133.8           48.5          152.7
   0.03724              -51.53         0.2764          56.74          52.19         -17.09         -11.17         -97.79          3.263          133.8          48.49          152.7
   0.05585              -51.53         0.2781          56.74          52.19         -17.09         -11.16         -97.76          3.272          133.8          48.49          152.7
   0.07447              -51.53         0.2799          56.74          52.19          -17.1         -11.16         -97.74          3.282          133.7          48.48          152.7
   0.09309              -51.53         0.2819          56.74          52.19          -17.1         -11.15         -97.71          3.292          133.7          48.47          152.7
    0.1117              -51.53          0.284          56.74          52.19          -17.1         -11.15         -97.68          3.302          133.7          48.47          152.6
    0.1303              -51.52         0.2862          56.75          52.19          -17.1         -11.15         -97.64          3.314          133.6          48.46          152.6
    0.1489              -51.52         0.2886          56.75          52.19          -17.1         -11.14         -97.61          3.326          133.6          48.45          152.6
    0.1676              -51.52         0.2912          56.75          52.19          -17.1         -11.14         -97.57          3.339          133.6          48.44          152.6
    0.1862              -51.52          0.294          56.75          52.19          -17.1         -11.13         -97.53          3.353          133.5          48.43          152.6
    0.2048              -51.52         0.2969          56.76          52.19          -17.1         -11.13         -97.48          3.368          133.5          48.42          152.5
    0.2234              -51.51         0.3001          56.76          52.19          -17.1         -11.12         -97.43          3.384          133.4          48.41          152.5
     0.242              -51.51         0.3036          56.76          52.19          -17.1         -11.11         -97.38          3.402          133.4          48.39          152.5
    0.2606              -51.51         0.3074          56.77          52.19          -17.1         -11.11         -97.32          3.421          133.3          48.38          152.5
    0.2793               -51.5         0.3114          56.77          52.19          -17.1          -11.1         -97.26          3.442          133.2          48.37          152.4
    0.2979               -51.5         0.3158          56.78          52.19          -17.1         -11.09          -97.2          3.464          133.2          48.35          152.4
    0.3165               -51.5         0.3207          56.78          52.19          -17.1         -11.08         -97.12          3.489          133.1          48.33          152.4
    0.3351              -51.49         0.3259          56.79          52.19          -17.1         -11.07         -97.05          3.515          133.0          48.31          152.3
    0.3537              -51.49         0.3317          56.79          52.19          -17.1         -11.06         -96.96          3.545          132.9          48.29          152.3
    0.3724              -51.48          0.338           56.8          52.19          -17.1         -11.05         -96.86          3.577          132.8          48.27          152.3
     0.391              -51.48          0.345          56.81          52.19          -17.1         -11.03         -96.76          3.612          132.7          48.24          152.2
    0.4096              -51.47         0.3526          56.81          52.19          -17.1         -11.02         -96.64          3.651          132.6          48.22          152.1
    0.4282              -51.47         0.3611          56.82          52.19          -17.1          -11.0         -96.52          3.694          132.5          48.18          152.1
    0.4468              -51.46         0.3706          56.83          52.19          -17.1         -10.98         -96.37          3.743          132.3          48.15          152.0
    0.4654              -51.45         0.3812          56.84          52.19          -17.1         -10.96         -96.21          3.796          132.2          48.11          151.9
    0.4841              -51.44          0.393          56.85          52.18         -17.11         -10.94         -96.04          3.856          132.0          48.07          151.9
    0.5027              -51.43         0.4063          56.87          52.18         -17.11         -10.91         -95.84          3.924          131.8          48.02          151.8
    0.5213              -51.42         0.4213          56.88          52.18         -17.11         -10.89         -95.61            4.0          131.5          47.97          151.7
    0.5399              -51.41         0.4384           56.9          52.18         -17.11         -10.85         -95.35          4.087          131.3           47.9          151.5
    0.5585              -51.39         0.4579          56.92          52.18         -17.11         -10.81         -95.06          4.186          131.0          47.83          151.4
    0.5771              -51.37         0.4803          56.94          52.18         -17.11         -10.77         -94.72            4.3          130.6          47.75          151.2
    0.5958              -51.35         0.5061          56.97          52.18         -17.12         -10.72         -94.34          4.431          130.2          47.66          151.1
    0.6144              -51.33         0.5361           57.0          52.18         -17.12         -10.66         -93.88          4.584          129.7          47.55          150.8
     0.633               -51.3         0.5712          57.03          52.18         -17.12          -10.6         -93.36          4.762          129.2          47.42          150.6
    0.6516              -51.27         0.6126          57.07          52.18         -17.13         -10.52         -92.73          4.972          128.6          47.27          150.3
    0.6702              -51.23         0.6617          57.12          52.18         -17.13         -10.42         -91.99          5.222          127.8          47.09          149.9
    0.6889              -51.18         0.7207          57.18          52.17         -17.14         -10.31         -91.11          5.522          126.9          46.88          149.5
    0.7075              -51.13          0.792          57.25          52.17         -17.14         -10.17         -90.04          5.884          125.8          46.62          149.0
    0.7261              -51.06         0.8791          57.34          52.17         -17.15          -10.0         -88.73          6.327          124.4           46.3          148.4
    0.7447              -50.97         0.9866          57.44          52.17         -17.16         -9.794         -87.11          6.873          122.7          45.91          147.6
    0.7633              -50.87          1.121          57.58          52.16         -17.17         -9.535         -85.09          7.555          120.7          45.42          146.7
    0.7819              -50.74           1.29          57.75          52.16         -17.19         -9.209         -82.55          8.413          118.0          44.81          145.5
    0.8006              -50.57          1.504          57.96          52.15         -17.21         -8.795         -79.32          9.505          114.7          44.02          143.9
    0.8192              -50.35          1.779          58.23          52.14         -17.23         -8.264         -75.19           10.9          110.4          43.02          142.0
    0.8378              -50.07          2.132          58.58          52.13         -17.26         -7.583         -69.89          12.69          104.9          41.74          139.5
    0.8564              -49.72          2.582          59.03          52.12          -17.3         -6.714         -63.11          14.98          97.92           40.1          136.2
     0.875              -49.28          3.149          59.59           52.1         -17.36          -5.62          -54.6          17.86          89.11          38.04          132.2
    0.8937              -48.73          3.839          60.28          52.08         -17.42         -4.288         -44.21          21.37          78.37          35.53          127.3
    0.9123               -48.1          4.639          61.08          52.05         -17.49         -2.743         -32.18          25.44          65.93          32.61          121.6
    0.9309              -47.42          5.505          61.94          52.02         -17.57         -1.071         -19.15          29.84          52.45          29.46          115.4
    0.9495              -46.74          6.372           62.8           52.0         -17.65         0.6018         -6.126          34.24          38.98          26.31          109.2
    0.9681              -46.11          7.172           63.6          51.97         -17.72          2.146          5.906          38.31          26.54          23.39          103.5
    0.9867              -45.57          7.862          64.28          51.95         -17.79          3.479          16.29          41.82           15.8          20.88          98.55
     1.005              -45.13          8.428          64.85          51.93         -17.84          4.572           24.8           44.7           6.99          18.82          94.51
     1.024              -44.77          8.879           65.3          51.92         -17.88          5.442          31.58          46.99       -0.01622          17.18           91.3
     1.043              -44.49          9.232          65.65           51.9         -17.91          6.123          36.88          48.78         -5.501           15.9          88.78
     1.061              -44.28          9.506          65.92           51.9         -17.94          6.653          41.01          50.18         -9.776           14.9          86.82
      1.08              -44.11          9.721          66.13          51.89         -17.96          7.068          44.24          51.27         -13.12          14.12          85.29
     1.098              -43.98           9.89           66.3          51.88         -17.97          7.394          46.78          52.13         -15.74           13.5          84.08
     1.117              -43.87          10.02          66.44          51.88         -17.98          7.653           48.8          52.81         -17.83          13.01          83.12
     1.136              -43.79          10.13          66.54          51.88         -17.99           7.86          50.42          53.35          -19.5          12.62          82.36
     1.154              -43.72          10.22          66.63          51.87          -18.0          8.028          51.73           53.8         -20.85           12.3          81.73
     1.173              -43.66          10.29           66.7          51.87         -18.01          8.166           52.8          54.16         -21.96          12.04          81.23
     1.192              -43.62          10.35          66.76          51.87         -18.01           8.28          53.69          54.46         -22.88          11.83           80.8
